<svg width="56" height="19" viewBox="0 0 56 19" fill="none" xmlns="http://www.w3.org/2000/svg">
<path d="M0.535156 18V6.79688H3.875V8.42578C4.13281 7.85547 4.53125 7.40625 5.07031 7.07812C5.60938 6.74219 6.1875 6.57422 6.80469 6.57422C8.57812 6.57422 9.77734 7.23047 10.4023 8.54297C11.2148 7.21484 12.3359 6.55078 13.7656 6.55078C15.125 6.55078 16.1836 6.98438 16.9414 7.85156C17.6992 8.71094 18.0781 9.97266 18.0781 11.6367V18H14.7734V12.0234C14.7734 11.3203 14.5938 10.7734 14.2344 10.3828C13.8828 9.99219 13.4453 9.79688 12.9219 9.79688C12.3516 9.79688 11.8867 9.98438 11.5273 10.3594C11.1758 10.7266 11 11.2969 11 12.0703V18H7.66016V11.9531C7.65234 11.2734 7.46875 10.7461 7.10938 10.3711C6.75781 9.98828 6.32812 9.79688 5.82031 9.79688C5.25781 9.79688 4.79297 9.98047 4.42578 10.3477C4.05859 10.707 3.875 11.2812 3.875 12.0703V18H0.535156ZM20.9023 13.4883V6.79688H24.2422V12.7734C24.2422 13.1953 24.3047 13.5625 24.4297 13.875C24.5625 14.1797 24.7344 14.4102 24.9453 14.5664C25.1562 14.7148 25.3672 14.8242 25.5781 14.8945C25.7891 14.9648 26.0039 15 26.2227 15C26.8008 15 27.2812 14.8164 27.6641 14.4492C28.0547 14.082 28.25 13.5039 28.25 12.7148V6.79688H31.5781V18H28.25V16.4648C27.9609 17.0117 27.543 17.4453 26.9961 17.7656C26.457 18.0781 25.9062 18.2344 25.3438 18.2344C24.0234 18.2344 22.9531 17.8281 22.1328 17.0156C21.3125 16.2031 20.9023 15.0273 20.9023 13.4883ZM33.6758 9.43359V6.79688H35.7148V2.49609H39.0312V6.79688H41.3867V9.43359H39.0312V18H35.7148V9.43359H33.6758ZM42.4414 9.43359V6.79688H44.4805V2.49609H47.7969V6.79688H50.1523V9.43359H47.7969V18H44.4805V9.43359H42.4414ZM52.3672 4.03125C51.9609 3.64844 51.7578 3.18359 51.7578 2.63672C51.7578 2.08984 51.9609 1.62891 52.3672 1.25391C52.7812 0.878906 53.2734 0.691406 53.8438 0.691406C54.4062 0.691406 54.8867 0.878906 55.2852 1.25391C55.6836 1.62891 55.8828 2.08984 55.8828 2.63672C55.8828 3.18359 55.6836 3.64844 55.2852 4.03125C54.8867 4.41406 54.4062 4.60547 53.8438 4.60547C53.2734 4.60547 52.7812 4.41406 52.3672 4.03125ZM52.1914 18V6.79688H55.5078V18H52.1914Z" fill="#FF5100"/>
</svg>
